<?xml version="1.0" encoding="utf-8"?>
<!-- Generator: Adobe Illustrator 27.5.0, SVG Export Plug-In . SVG Version: 6.00 Build 0)  -->
<svg version="1.1" xmlns="http://www.w3.org/2000/svg" xmlns:xlink="http://www.w3.org/1999/xlink" x="0px" y="0px"
	 viewBox="0 0 500 500" style="enable-background:new 0 0 500 500;" xml:space="preserve">
<g id="BACKGROUND">
	<rect style="fill:#E0DFFF;" width="500" height="500"/>
</g>
<g id="OBJECT">
	<g>
		<g>
			<g>
				<path style="fill:#C6C6F7;" d="M394.21,222.868c-5.472,36.288-19.113,46.726-15.759,73.655
					c2.275,18.264,12.973,33.24,20.869,54.469c9.761,26.238-2.428,76.788-72.301,79.482c-38.982,1.503-79.035-19.704-116.938-10.877
					c-67.846,15.799-97.239-17.183-101.942-34.69c-14.659-54.563,37.656-62.562,12.537-103.664
					c-36.639-59.952-30.856-155.066,87.112-123.662c61.875,16.471,111.331-51.622,160.854-19.246
					C401.732,159.967,398.182,196.525,394.21,222.868z"/>
			</g>
			
				<ellipse transform="matrix(0.9239 -0.3827 0.3827 0.9239 -129.6028 59.8635)" style="fill:#C6C6F7;" cx="85.676" cy="355.711" rx="10.066" ry="10.066"/>
			<path style="fill:#C6C6F7;" d="M99.054,333.319c0,2.768-2.244,5.012-5.012,5.012c-2.768,0-5.012-2.244-5.012-5.012
				c0-2.768,2.244-5.012,5.012-5.012C96.81,328.307,99.054,330.551,99.054,333.319z"/>
			<path style="fill:#C6C6F7;" d="M412.353,138.345c4.734,2.914,6.21,9.114,3.295,13.849c-2.914,4.734-9.114,6.21-13.849,3.295
				c-4.734-2.914-6.21-9.115-3.295-13.849C401.419,136.906,407.619,135.43,412.353,138.345z"/>
			<path style="fill:#C6C6F7;" d="M395.021,123.786c2.357,1.451,3.092,4.538,1.641,6.895c-1.451,2.357-4.538,3.092-6.896,1.641
				c-2.357-1.451-3.092-4.538-1.641-6.896C389.577,123.07,392.664,122.335,395.021,123.786z"/>
		</g>
		<g>
			<path style="fill:#473DD7;" d="M241.642,79.923c-0.212-1.109-1.29-1.832-2.396-1.607l-9.456,1.923l-128.978,20.086
				l26.406,178.832l14.693,9.815l131.447-22.096c2.141-0.36,3.567-2.411,3.16-4.543L241.642,79.923z"/>
			<polygon style="fill:#F5F5F5;" points="228.174,71.536 239.904,80.178 274.706,264.154 141.859,287.436 128.048,277.948 			"/>
			<path style="fill:#8D8FFF;" d="M257.952,254.895l-130.735,24.261L94.116,100.785c-0.435-2.345,1.091-4.605,3.428-5.078
				l129.558-26.209c1.339-0.271,2.637,0.615,2.873,1.96l31.362,178.56C261.737,252.297,260.227,254.473,257.952,254.895z"/>
			<path style="fill:#473DD7;" d="M166.734,275.951l-19.849,3.879c3.642,8.579,5.918,18.194,6.738,27.478
				c3.165-3.901,5.202-8.707,5.803-13.694c2.839,4.237,6.003,8.257,9.455,12.011C170.112,295.403,169.545,285.857,166.734,275.951z"
				/>
			
				<line style="fill:none;stroke:#7B7BC9;stroke-width:0.5;stroke-linecap:round;stroke-miterlimit:10;" x1="235.573" y1="80.532" x2="267.447" y2="252.07"/>
			
				<line style="fill:none;stroke:#7B7BC9;stroke-width:0.5;stroke-linecap:round;stroke-miterlimit:10;" x1="173.645" y1="276.458" x2="257.587" y2="261.247"/>
			<path style="fill:#7F85F4;" d="M242.758,144.239c-13.364,45.284-45.613,96.941-123.289,93.164l7.748,41.753l130.735-24.261
				c2.275-0.422,3.785-2.598,3.385-4.877L242.758,144.239z"/>
			<path style="opacity:0.5;fill:#A1A6FF;" d="M166.309,81.797l-68.765,13.91c-2.337,0.473-3.863,2.733-3.428,5.078l19.956,107.534
				C171.686,178.923,172.002,117.852,166.309,81.797z"/>
			<g>
				<path style="fill:#FFFFFF;" d="M156.231,133.388l-9.473,1.928c-0.322,0.066-0.571,0.321-0.629,0.645l-0.637,3.59
					c-0.057,0.324-0.307,0.579-0.629,0.645l-4.818,0.98c-0.563,0.115-1.06-0.384-0.943-0.947l5.156-24.819
					c0.065-0.313,0.311-0.558,0.624-0.622l5.503-1.12c0.316-0.064,0.64,0.067,0.821,0.334l14.217,20.877
					c0.322,0.473,0.059,1.121-0.502,1.235l-5.068,1.032c-0.324,0.066-0.655-0.074-0.834-0.352l-1.956-3.052
					C156.886,133.462,156.555,133.322,156.231,133.388z M153.272,127.807l-3.376-5.297c-0.393-0.616-1.338-0.427-1.464,0.293
					l-1.083,6.205c-0.097,0.556,0.396,1.035,0.948,0.922l4.459-0.907C153.307,128.91,153.574,128.281,153.272,127.807z"/>
				<path style="fill:#FFFFFF;" d="M174.642,121.762l0.488,2.397c0.088,0.433-0.192,0.856-0.625,0.944l-7.652,1.557
					c-0.433,0.088-0.856-0.192-0.944-0.625l-0.488-2.397c-0.088-0.433,0.192-0.856,0.625-0.944l7.652-1.557
					C174.131,121.049,174.553,121.329,174.642,121.762z"/>
				<path style="fill:#FFFFFF;" d="M196.507,105.099l0.631,3.102c0.038,0.187,0.008,0.381-0.084,0.547l-8.82,15.946
					c-0.331,0.598,0.191,1.308,0.86,1.172l10.6-2.157c0.433-0.088,0.856,0.192,0.944,0.625l0.721,3.547
					c0.088,0.433-0.192,0.856-0.625,0.944l-20.041,4.078c-0.433,0.088-0.856-0.192-0.944-0.625l-0.624-3.068
					c-0.038-0.186-0.008-0.38,0.083-0.546l8.816-15.982c0.33-0.598-0.192-1.307-0.861-1.171l-9.941,2.023
					c-0.433,0.088-0.856-0.192-0.944-0.625l-0.722-3.547c-0.088-0.433,0.192-0.856,0.625-0.944l19.379-3.944
					C195.996,104.386,196.419,104.666,196.507,105.099z"/>
			</g>
		</g>
		
			<line style="fill:none;stroke:#2D2B82;stroke-width:0.5;stroke-linecap:round;stroke-linejoin:round;stroke-miterlimit:10;" x1="108.938" y1="411.469" x2="392.394" y2="411.469"/>
		<g>
			<g>
				<path style="fill:#8D8FFF;" d="M322.044,291.381c3.884-4.783,8.282-9.48,14.026-11.709c5.745-2.228,13.147-1.276,16.783,3.698
					c3.218,4.402,2.639,10.693,0.088,15.513c-2.551,4.819-6.736,8.525-10.736,12.23c-20.538,19.029-37.918,24.192-52.461,48.117
					c2.741-4.509-2.813-2.915,1.108-14.728C297.52,324.412,311.611,304.228,322.044,291.381z"/>
				
					<path style="opacity:0.3;fill:none;stroke:#E8E8E8;stroke-width:0.5;stroke-linecap:round;stroke-linejoin:round;stroke-miterlimit:10;" d="
					M344.282,287.698c-23.246,22.412-42.305,36.762-54.538,71.533"/>
			</g>
			<g>
				<path style="fill:#8D8FFF;" d="M291.625,264.791c2.42-5.667,5.357-11.391,10.268-15.113c4.911-3.721,12.289-4.84,17.153-1.057
					c4.304,3.348,5.477,9.556,4.349,14.891c-1.128,5.335-4.133,10.048-6.961,14.71c-14.517,23.941-30.026,55.824-37.433,82.825
					c1.396-5.089-3.287-24.171-2.764-36.606C277.125,303.29,285.126,280.01,291.625,264.791z"/>
				
					<path style="opacity:0.3;fill:none;stroke:#E8E8E8;stroke-width:0.5;stroke-linecap:round;stroke-linejoin:round;stroke-miterlimit:10;" d="
					M311.995,255.137c-16.19,27.938-31.206,66.846-33.41,103.64"/>
			</g>
		</g>
		<g>
			<g>
				<path style="fill:#FFFFFF;" d="M150.743,385.262c0,0,5.279,13.662,0,22.771h70.439v-22.771H150.743z"/>
				<path style="fill:#DEDCE2;" d="M217.621,407.681l-3.868-9.663c-1.615-4.036-5.525-6.681-9.871-6.681h-51.53
					c-0.344-1.991-0.968-3.945-1.999-5.725h69.203L217.621,407.681z"/>
				<path style="fill:#473DD7;" d="M151.069,381.346h121.876c8.318,0,15.062,6.743,15.062,15.062l0,0
					c0,8.318-6.743,15.062-15.062,15.062H151.069c-1.774,0-3.212-1.438-3.212-3.212v-0.134c0-1.774,1.438-3.212,3.212-3.212h54.801
					c4.734,0,8.571-3.837,8.571-8.571v0c0-4.734-3.837-8.571-8.571-8.571h-54.801c-1.774,0-3.212-1.438-3.212-3.212l0,0
					C147.858,382.784,149.296,381.346,151.069,381.346z"/>
				
					<line style="fill:none;stroke:#7B7BC9;stroke-width:0.5;stroke-linecap:round;stroke-miterlimit:10;" x1="153.484" y1="393.566" x2="181.062" y2="393.566"/>
				
					<line style="fill:none;stroke:#7B7BC9;stroke-width:0.5;stroke-linecap:round;stroke-miterlimit:10;" x1="187.715" y1="393.566" x2="193.048" y2="393.566"/>
				
					<line style="fill:none;stroke:#7B7BC9;stroke-width:0.5;stroke-linecap:round;stroke-miterlimit:10;" x1="153.484" y1="399.249" x2="190.382" y2="399.249"/>
				<path style="fill:#3333C1;" d="M272.945,381.346H151.069c-1.774,0-3.212,1.438-3.212,3.212c0,0.685,0.218,1.316,0.583,1.837
					c0.581-0.829,1.54-1.375,2.629-1.375h121.876c7.695,0,14.031,5.774,14.939,13.224c0.073-0.603,0.123-1.214,0.123-1.837l0,0
					C288.007,388.089,281.264,381.346,272.945,381.346z"/>
			</g>
			<g>
				<path style="fill:#FFFFFF;" d="M324.208,355.138c0,0-5.279,13.662,0,22.771H253.77v-22.771H324.208z"/>
				<path style="fill:#DEDCE2;" d="M257.331,377.558l3.868-9.663c1.615-4.035,5.524-6.681,9.871-6.681h51.53
					c0.343-1.991,0.968-3.945,1.999-5.725h-69.203L257.331,377.558z"/>
				<path style="fill:#8D8FFF;" d="M323.883,351.223H202.006c-8.318,0-15.062,6.743-15.062,15.062l0,0
					c0,8.318,6.743,15.062,15.062,15.062h121.876c1.774,0,3.212-1.438,3.212-3.212V378c0-1.774-1.438-3.212-3.212-3.212h-54.801
					c-4.734,0-8.571-3.837-8.571-8.571l0,0c0-4.734,3.837-8.571,8.571-8.571h54.801c1.774,0,3.212-1.438,3.212-3.212l0,0
					C327.094,352.66,325.656,351.223,323.883,351.223z"/>
				
					<line style="fill:none;stroke:#7B7BC9;stroke-width:0.5;stroke-linecap:round;stroke-miterlimit:10;" x1="321.468" y1="363.443" x2="293.889" y2="363.443"/>
				
					<line style="fill:none;stroke:#7B7BC9;stroke-width:0.5;stroke-linecap:round;stroke-miterlimit:10;" x1="287.237" y1="363.443" x2="281.903" y2="363.443"/>
				
					<line style="fill:none;stroke:#7B7BC9;stroke-width:0.5;stroke-linecap:round;stroke-miterlimit:10;" x1="321.468" y1="369.126" x2="284.57" y2="369.126"/>
				<path style="opacity:0.3;fill:#5757EA;" d="M202.006,351.223h121.876c1.774,0,3.212,1.438,3.212,3.212
					c0,0.685-0.218,1.316-0.583,1.837c-0.581-0.829-1.54-1.374-2.629-1.374H202.006c-7.695,0-14.031,5.774-14.938,13.224
					c-0.074-0.603-0.123-1.214-0.123-1.837v0C186.945,357.966,193.688,351.223,202.006,351.223z"/>
			</g>
			<g>
				<path style="fill:#FFFFFF;" d="M301.644,325.015c0,0-5.279,13.662,0,22.771h-70.439v-22.771H301.644z"/>
				<path style="fill:#DEDCE2;" d="M234.885,346.816l3.868-9.663c1.615-4.036,5.524-6.681,9.871-6.681h51.53
					c0.343-1.991,0.968-3.945,1.999-5.725h-69.203L234.885,346.816z"/>
				<path style="fill:#5757EA;" d="M301.319,321.099H179.442c-8.318,0-15.062,6.743-15.062,15.062v0
					c0,8.318,6.743,15.062,15.062,15.062h121.876c1.774,0,3.212-1.438,3.212-3.212v-0.134c0-1.774-1.438-3.212-3.212-3.212h-54.801
					c-4.734,0-8.571-3.837-8.571-8.571l0,0c0-4.734,3.837-8.571,8.571-8.571h54.801c1.774,0,3.212-1.438,3.212-3.212l0,0
					C304.53,322.537,303.092,321.099,301.319,321.099z"/>
				
					<line style="fill:none;stroke:#7B7BC9;stroke-width:0.5;stroke-linecap:round;stroke-miterlimit:10;" x1="298.904" y1="333.319" x2="271.325" y2="333.319"/>
				
					<line style="fill:none;stroke:#7B7BC9;stroke-width:0.5;stroke-linecap:round;stroke-miterlimit:10;" x1="264.673" y1="333.319" x2="259.339" y2="333.319"/>
				
					<line style="fill:none;stroke:#7B7BC9;stroke-width:0.5;stroke-linecap:round;stroke-miterlimit:10;" x1="298.904" y1="339.003" x2="262.006" y2="339.003"/>
				<g>
					<path style="fill:#473DD7;" d="M304.53,347.877c0-0.63-0.188-1.213-0.502-1.709H182.311c-8.318,0-15.062-6.743-15.062-15.062
						c0-1.666,0.285-3.263,0.784-4.761c-2.271,2.637-3.653,6.063-3.653,9.816v0c0,8.318,6.743,15.061,15.062,15.061h121.876
						c1.774,0,3.212-1.438,3.212-3.212V347.877z"/>
				</g>
				<path style="fill:none;stroke:#FFFFFF;stroke-width:0.5;stroke-linecap:round;stroke-miterlimit:10;" d="M177.499,324.086
					c-1.377,0.195-3.466,0.739-4.391,2.259"/>
				
					<line style="fill:none;stroke:#FFFFFF;stroke-width:0.5;stroke-linecap:round;stroke-miterlimit:10;" x1="194.718" y1="323.977" x2="180.699" y2="323.977"/>
			</g>
		</g>
		<g>
			<g id="leg_00000168084414031524503850000009596286239609521833_">
				<path style="fill:#FFA0A4;" d="M309.323,332.187c4.011,19.999,14.582,59.83,14.39,60.575c-0.085,0.333-0.726,4.49-1.43,9.103
					c-0.381,2.499-0.781,5.13-1.118,7.356c-0.488,3.222,1.301,6.353,4.323,7.573c10.374,4.189,33.021,13.159,35.61,12.693
					c3.371-0.607,3.131-5.357-1.623-9.587c-1.002-0.894-2.444-2.335-4.098-4.045c-6.16-6.389-15.229-16.602-15.229-16.602
					s-2.538-75.37-3.414-82.383c-0.884-7.014-6.292-14.83-15.354-14.823C311.986,302.052,305.311,312.188,309.323,332.187z"/>
				<path style="fill:#6C27A8;" d="M321.052,409.969c-0.421,2.784,1.123,5.486,3.733,6.542
					c10.014,4.052,33.664,13.454,36.312,12.977c3.371-0.607,3.131-5.357-1.623-9.587c-1.002-0.894-2.444-2.335-4.098-4.045
					c2.819,6.938-14.478-2.132-18.155-5.397c-5.748-5.115-11.153-7.489-14.939-8.593C321.858,404.65,321.411,407.6,321.052,409.969z
					"/>
			</g>
			<path style="fill:#6C27A8;" d="M243.013,284.802c0,0-7.214,9.335,2.493,25.965c8.233,14.103,61.091,12.164,61.091,12.164
				l15.322,64.722l17.807-0.592c0,0,1.695-79.365-7.775-92.485c-6.248-8.656-42.293-7.876-62.747-8.949
				C253.067,284.781,243.013,284.802,243.013,284.802z"/>
			<path style="opacity:0.45;fill:#362160;" d="M286.27,289.817c-9.903-5.019-48.263-5.019-48.263-5.019l-28.409-0.196
				c0.922-2.209-3.461,10.757-1.844,8.178c0.951-1.518-0.426-3.168,0.164-4.323l-2.608-0.954c0,0,12.288,8.883,23.025,28.153
				c2.871,5.152,6.634,1.826,14.953,3.259l4.708,0.554l7.939-0.092c14.413,1.721,28.869,2.597,39.332,3.599
				C295.267,322.975,292.526,292.988,286.27,289.817z M226.744,301.205l12.185,14.924
				C231.545,312.907,226.714,308.347,226.744,301.205z"/>
			<path style="fill:#7C3301;" d="M193.137,228.318c2.028-7.126-10.199-15.48-2.231-31.421c2.014-4.03,6.559-5.913,9.338-8.302
				c2.121-1.824,2.317-5.878,4.321-10.886c3.537-8.837,14.206-7.684,16.035-17.18c0.878-4.558,5.829-19.255,33.936-19.417
				c15.533-0.09,20.075,20.897,8.399,31.819c0,0-6.666,3.746-3.373,13.85c1.136,3.485,8.205,5.14,7.251,9.908
				c-2.902,14.507,11.968,2.095-1.618,32.719L193.137,228.318z"/>
			<path style="fill:#6D2E03;" d="M227.358,197.216c-7.01,0.367-12.015-1.28-10.548-7.088c1.377-5.45,8.85-6.653,9.991-15.789
				c1.141-9.136,9.639-10.045,12.854-13.893c5.067-6.066,4.804-10.276,14.983-5.639c11.168,5.088,5.956,17.248,5.956,17.248
				l-1.997,4.313c-2.276,5.078-6.743,11.211-1.796,16.195c1.99,2.005-1.167,9.74-2.403,11.006
				C251.513,206.523,227.358,197.216,227.358,197.216z"/>
			<path style="fill:#FFA0A4;" d="M249.908,220.106c4.805,8.061,8.65,16.129,12.1,23.548c8.515,18.307,12.704,34.899,24.628,34.013
				c14.519-1.078,9.176-15.042-1.824-41.826l-2.639-4.074c0,0-8.433-14.177-16.509-28.393
				C258.37,190.541,241.368,205.748,249.908,220.106z"/>
			<g>
				<g>
					<path style="fill:#FFC96C;" d="M268.037,254.413c-0.916-1.781-4.835-8.441-6.029-10.76c-1.944-3.787-9.204,1.811-11.051-1.793
						c-0.785-1.543-1.514-2.978-2.145-4.222c-0.396-0.775-0.75-1.482-1.056-2.094c-5.368-10.682-23.261-36.768-5.884-38.594
						c0.007,0-0.232-0.526-0.225-0.526l0.225,0.526c1.61-0.164,14.848,0.525,16.243,0.69c0.027,0,0.048,0.007,0.075,0.006
						c0.41,0.024,0.796,0.11,1.186,0.161c0.116,0.013,0.226,0.025,0.335,0.045c0.198,0.033,0.39,0.058,0.581,0.098
						c0.233,0.039,0.465,0.092,0.691,0.144c0.178,0.04,0.356,0.079,0.527,0.132c0.089,0.02,0.171,0.04,0.246,0.059
						c0.171,0.053,0.342,0.106,0.507,0.16c0.164,0.046,0.322,0.106,0.473,0.167c0.157,0.047,0.308,0.107,0.466,0.174
						c0.185,0.074,0.37,0.147,0.541,0.234c0.164,0.067,0.315,0.141,0.473,0.221c0.014,0,0.021,0.007,0.027,0.014
						c0.206,0.101,0.405,0.201,0.597,0.316c0.171,0.087,0.336,0.188,0.494,0.283c0.144,0.088,0.281,0.175,0.419,0.27
						c0.474,0.31,0.934,0.648,1.395,1.026c0.193,0.155,0.378,0.311,0.557,0.48c0.585,0.514,1.163,1.09,1.728,1.72
						c0.186,0.203,0.372,0.413,0.552,0.63c0.145,0.163,0.283,0.332,0.421,0.502c0.228,0.278,0.456,0.57,0.677,0.868
						c0.152,0.19,0.297,0.394,0.449,0.597c0.228,0.312,0.456,0.631,0.677,0.964c0.173,0.251,0.353,0.509,0.526,0.781
						c0.18,0.279,0.367,0.564,0.553,0.856s0.367,0.591,0.554,0.897c0.429,0.693,0.852,1.42,1.282,2.181
						c0.139,0.252,0.284,0.503,0.423,0.761c0.194,0.347,0.388,0.7,0.582,1.06c0.187,0.34,0.375,0.687,0.555,1.04
						c0.215,0.394,0.423,0.802,0.639,1.217c0.444,0.857,0.888,1.72,1.326,2.59c5.075,9.927,8.652,17.318,11.245,22.752
						C290.969,243.298,269.481,257.215,268.037,254.413z"/>
				</g>
			</g>
			<g>
				<defs>
					<path id="SVGID_1_" d="M268.037,254.413c-0.916-1.781-4.835-8.441-6.029-10.76c-1.944-3.787-9.204,1.811-11.051-1.793
						c-0.785-1.543-1.514-2.978-2.145-4.222c-0.396-0.775-0.75-1.482-1.056-2.094c-5.368-10.682-23.261-36.768-5.884-38.594
						c0.007,0-0.232-0.526-0.225-0.526l0.225,0.526c1.61-0.164,14.848,0.525,16.243,0.69c0.027,0,0.048,0.007,0.075,0.006
						c0.41,0.024,0.796,0.11,1.186,0.161c0.116,0.013,0.226,0.025,0.335,0.045c0.198,0.033,0.39,0.058,0.581,0.098
						c0.233,0.039,0.465,0.092,0.691,0.144c0.178,0.04,0.356,0.079,0.527,0.132c0.089,0.02,0.171,0.04,0.246,0.059
						c0.171,0.053,0.342,0.106,0.507,0.16c0.164,0.046,0.322,0.106,0.473,0.167c0.157,0.047,0.308,0.107,0.466,0.174
						c0.185,0.074,0.37,0.147,0.541,0.234c0.164,0.067,0.315,0.141,0.473,0.221c0.014,0,0.021,0.007,0.027,0.014
						c0.206,0.101,0.405,0.201,0.597,0.316c0.171,0.087,0.336,0.188,0.494,0.283c0.144,0.088,0.281,0.175,0.419,0.27
						c0.474,0.31,0.934,0.648,1.395,1.026c0.193,0.155,0.378,0.311,0.557,0.48c0.585,0.514,1.163,1.09,1.728,1.72
						c0.186,0.203,0.372,0.413,0.552,0.63c0.145,0.163,0.283,0.332,0.421,0.502c0.228,0.278,0.456,0.57,0.677,0.868
						c0.152,0.19,0.297,0.394,0.449,0.597c0.228,0.312,0.456,0.631,0.677,0.964c0.173,0.251,0.353,0.509,0.526,0.781
						c0.18,0.279,0.367,0.564,0.553,0.856s0.367,0.591,0.554,0.897c0.429,0.693,0.852,1.42,1.282,2.181
						c0.139,0.252,0.284,0.503,0.423,0.761c0.194,0.347,0.388,0.7,0.582,1.06c0.187,0.34,0.375,0.687,0.555,1.04
						c0.215,0.394,0.423,0.802,0.639,1.217c0.444,0.857,0.888,1.72,1.326,2.59c5.075,9.927,8.652,17.318,11.245,22.752
						C290.969,243.298,269.481,257.215,268.037,254.413z"/>
				</defs>
				<clipPath id="SVGID_00000052067357654282887410000009934218858595126958_">
					<use xlink:href="#SVGID_1_"  style="overflow:visible;"/>
				</clipPath>
				
					<path style="clip-path:url(#SVGID_00000052067357654282887410000009934218858595126958_);fill:none;stroke:#FFFFFF;stroke-width:0.5;stroke-miterlimit:10;" d="
					M235.7,251.021c0,0,9.187-11.761,21.241-7.796c12.054,3.965,11.554-12.653,23.267-10.571
					c11.713,2.082,7.668-10.727,19.198-13.667c11.53-2.94,11.446-9.823,11.446-9.823"/>
			</g>
			<g>
				<g>
					<g>
						<path style="fill:#FFC96C;" d="M263.865,214.396c-0.552,4.659,6.483,9.839,3.125,26.53
							c-0.965,4.798-6.456,10.174-6.413,11.399l-4.617,33.136c-7.894,1.457-17.512,1.708-24.92,3.19
							c-2.611,0.515-5.194,1.04-7.735,1.566c-3.601,0.741-3.786-0.189-7.242,0.554c-8.835,1.897-11.716-4.351-19.5-2.475
							c0.514-7.257,1.332-17.626,3.342-37.779c1.106-11.088-4.841-14.468-3.443-24.28c0.981-6.899,4.061-10.647,5.135-15.368
							c1.116-4.878,2.896-7.643,4.071-8.816c4.093-4.077,4.842-5.441,14.902-5.982c0.255-0.014,9.125-0.173,10.499,0.122
							c0.283,0.059-0.197-0.356,0.528-0.182c1.385,0.321-0.407-0.104,1.153,0.29c3.897,0.99,9.038,2.326,19.669,3.148
							c0.709,0.052,1.392,0.113,2.04,0.173l0.007-0.001c0.188,0.017,0.384,0.039,0.565,0.057c0.188,0.017,0.37,0.034,0.552,0.059
							c0.272,0.026,0.545,0.059,0.804,0.094c0.265,0.027,0.525,0.062,0.777,0.098c0.504,0.065,0.996,0.138,1.468,0.221
							c0.761,0.134,2.568,0.572,2.775,0.627c0.402,0.126,0.784,0.255,1.147,0.394C262.715,201.232,264.04,212.9,263.865,214.396z"/>
						
							<path style="fill:none;stroke:#CC881B;stroke-width:0.5;stroke-linecap:round;stroke-linejoin:round;stroke-miterlimit:10;" d="
							M260.577,252.326c0.058-1.224,3.082-3.706,4.164-10.581c1.58-10.041-1.922-7.916-2.303-14.961"/>
					</g>
				</g>
			</g>
			<g>
				<defs>
					<path id="SVGID_00000007392940748120586590000011647299784029049257_" d="M263.865,214.396
						c-0.552,4.659,6.483,9.839,3.125,26.53c-0.965,4.798-6.456,10.174-6.413,11.399l-4.617,33.136
						c-7.894,1.457-17.512,1.708-24.92,3.19c-2.611,0.515-5.194,1.04-7.735,1.566c-3.601,0.741-3.786-0.189-7.242,0.554
						c-8.835,1.897-11.716-4.351-19.5-2.475c0.514-7.257,1.332-17.626,3.342-37.779c1.106-11.088-4.841-14.468-3.443-24.28
						c0.981-6.899,4.061-10.647,5.135-15.368c1.116-4.878,2.896-7.643,4.071-8.816c4.093-4.077,4.842-5.441,14.902-5.982
						c0.255-0.014,9.125-0.173,10.499,0.122c0.283,0.059-3.449-1.146-2.724-0.973c1.385,0.321,2.845,0.687,4.405,1.081
						c3.897,0.99,9.038,2.326,19.669,3.148c0.709,0.052,1.392,0.113,2.04,0.173l0.007-0.001c0.188,0.017,0.384,0.039,0.565,0.057
						c0.188,0.017,0.37,0.034,0.552,0.059c0.272,0.026,0.545,0.059,0.804,0.094c0.265,0.027,0.525,0.062,0.777,0.098
						c0.504,0.065,0.996,0.138,1.468,0.221c0.761,0.134,2.568,0.572,2.775,0.627c0.402,0.126,0.784,0.255,1.147,0.394
						C262.715,201.232,264.04,212.9,263.865,214.396z"/>
				</defs>
				<clipPath id="SVGID_00000178193793838348631800000017788898398195868343_">
					<use xlink:href="#SVGID_00000007392940748120586590000011647299784029049257_"  style="overflow:visible;"/>
				</clipPath>
				<g style="clip-path:url(#SVGID_00000178193793838348631800000017788898398195868343_);">
					<path style="fill:none;stroke:#FFFFFF;stroke-width:0.5;stroke-miterlimit:10;" d="M194.82,219.221
						c0,0,23.354-4.353,29.585-0.907c18.849,10.424,15.779-5.984,26.563-0.961c9.609,4.476,6.759-1.629,18.294,1.294
						c11.534,2.922,15.668-12.115,15.668-12.115"/>
					<path style="fill:none;stroke:#FFFFFF;stroke-width:0.5;stroke-miterlimit:10;" d="M185.95,246.739
						c0,0,13.688-5.947,22.385,3.293c8.697,9.24,16.194-5.6,25.491,1.823c9.297,7.423,11.86-5.764,23.394-2.841
						c11.534,2.922,14.747-3.165,14.747-3.165"/>
					<path style="fill:none;stroke:#FFFFFF;stroke-width:0.5;stroke-miterlimit:10;" d="M178.442,266.801
						c0,0,13.688-5.947,22.385,3.293c8.697,9.24,16.194-5.6,25.491,1.823c9.297,7.423,11.86-5.763,23.394-2.841
						c11.534,2.922,14.748-3.165,14.748-3.165"/>
				</g>
			</g>
			<polygon style="fill:#EFB35B;" points="217.068,219.221 208.292,288.409 196.42,286.76 201.345,236.787 			"/>
			<path style="fill:#FFA0A4;" d="M219.313,216.328c-3.166,8.834-5.389,17.49-7.35,25.434c-4.838,19.602-5.761,36.69-17.632,38.112
				c-14.456,1.732-11.71-12.269-3.323-40.352C191.007,239.522,224.935,200.596,219.313,216.328z"/>
			<path style="fill:#FFC96C;" d="M220.943,221.288c-0.476,2.923-1.194,5.832-2.177,8.586c-2.498,6.98-4.416,13.845-6.071,20.339
				c-0.332,1.287-0.418-1.818-0.73-0.561c-0.187,0.756-0.857,1.288-1.635,1.292c-3.194,0.018-6.784-0.089-10.425-0.425
				c-6.03-0.556-10.084-1.297-14.783-3.684c0.003-0.007,0.041-0.363,1.041-3.187c2.017-5.734,6.735-15.3,10.914-25.467
				c0.961-2.338,1.92-5.539,2.767-7.691c4.091-10.422,8.139-13.6,18.878-14.337C218.727,196.151,223.172,207.538,220.943,221.288z"
				/>
			<path style="fill:none;stroke:#F7AD2B;stroke-width:0.5;stroke-linecap:round;stroke-linejoin:round;stroke-miterlimit:10;" d="
				M221.451,218.881"/>
			<g id="hand_00000152951222312476370760000013506415107148956806_">
				<path style="fill:#FFA0A4;" d="M293.005,272.394c4.54-8.351-4.941-19.116-9.774-24.653c-3.595-4.119-13.11-14.157-17.751-19.029
					c-1.595-1.682-2.616-2.748-2.616-2.748s-2.228,4.281-8.737,5.371c0.405,0.685,2.506,1.358,3.125,2.604
					c4.508,9.034,12.439,31.173,16.769,37.169C278.948,277.924,288.519,280.653,293.005,272.394z"/>
			</g>
			<g>
				
					<path style="fill:#F9F9F9;stroke:#EDEDED;stroke-width:0.5;stroke-linecap:round;stroke-linejoin:round;stroke-miterlimit:10;" d="
					M279.896,208.4c-1.244-0.857-3.589-0.918-3.589-0.918c-1.913,0.722-4.546,3.123-7.55,6.405
					c-5.082,5.554-7.94,10.961-7.94,10.961s-4.984-0.799-12.155-1.823c-7.171-1.024-16.119-0.896-16.119-0.896l-1.356,3.885
					l29.448,3.651L279.896,208.4z"/>
				
					<polygon style="fill:#F9F9F9;stroke:#DDDDDD;stroke-width:0.5;stroke-linecap:round;stroke-linejoin:round;stroke-miterlimit:10;" points="
					258.937,226.192 229.431,224.018 217.932,256.085 246.19,258.192 				"/>
				
					<polygon style="fill:#F9F9F9;stroke:#DDDDDD;stroke-width:0.5;stroke-linecap:round;stroke-linejoin:round;stroke-miterlimit:10;" points="
					281.175,206.34 262.309,225.823 249.62,256.221 267.897,238.723 				"/>
				
					<polygon style="fill:#F9F9F9;stroke:#DDDDDD;stroke-width:0.5;stroke-linecap:round;stroke-linejoin:round;stroke-miterlimit:10;" points="
					262.309,225.823 258.937,226.192 246.19,258.192 249.62,256.221 				"/>
				<g>
					
						<path style="fill:none;stroke:#EDEDED;stroke-width:0.5;stroke-linecap:round;stroke-linejoin:round;stroke-miterlimit:10;" d="
						M268.097,216.183c-2.758,2.819-5.508,7.671-5.508,7.671"/>
					
						<path style="fill:none;stroke:#EDEDED;stroke-width:0.5;stroke-linecap:round;stroke-linejoin:round;stroke-miterlimit:10;" d="
						M258.577,225.391c-2.54-1.094-9.739-1.018-9.739-1.018"/>
				</g>
			</g>
			<g>
				<g>
					<path style="fill:#FFA0A4;" d="M228.648,244.435c3.297-2.911,5.844-6.293,7.5-8.665c1.656-2.372,6.454-6.059,7.008-5.846
						c0.554,0.213,1.212,1.499-1.113,4.51c-1.372,1.778-1.639,2.882-1.639,2.882s1.449,0.312,3.187-0.309
						c1.738-0.62,9.201-2.587,10.094-2.854c0.893-0.268,1.314,0.927,0.053,1.738c2.128-0.755,2.982,0.428,1.241,2.014
						c0,0,1.798,0.126,0.089,2.006s-4.741,4.141-4.741,4.141s3.839-1.968,4.383-1.998c0.544-0.031,0.996,0.756-0.256,1.773
						c-1.251,1.017-10.301,6.697-11.901,7.521c-1.956,1.008-5.995,2.531-5.995,2.531S228.849,249.338,228.648,244.435z"/>
					<g>
						<g>
							<path style="fill:#FFA0A4;" d="M195.09,280.607c9.614-1.192,42.319-26.955,42.727-27.216c0,0-2.696-7.862-9.169-8.956
								c0,0-21.031,6.419-27.683,8.273c-6.651,1.859-14.299,8.137-16.289,14.223C183.326,271.066,185.575,281.791,195.09,280.607z"
								/>
						</g>
					</g>
				</g>
				<path style="fill:none;stroke:#EF8A66;stroke-width:0.5;stroke-linecap:round;stroke-linejoin:round;stroke-miterlimit:10;" d="
					M238.587,233.144c1.951-1.776,4.2-3.361,4.568-3.219c0.554,0.213,1.212,1.499-1.113,4.51c-1.372,1.778-1.639,2.882-1.639,2.882
					s1.449,0.312,3.187-0.309c1.738-0.62,9.201-2.587,10.094-2.854c0.893-0.268,1.314,0.927,0.053,1.738
					c2.128-0.755,2.982,0.428,1.241,2.014c0,0,1.798,0.126,0.089,2.006s-4.741,4.141-4.741,4.141s3.839-1.968,4.383-1.998
					c0.544-0.031,0.996,0.756-0.256,1.773c-0.373,0.303-1.441,1.022-2.797,1.902"/>
				<path style="fill:none;stroke:#EF8A66;stroke-width:0.5;stroke-linecap:round;stroke-linejoin:round;stroke-miterlimit:10;" d="
					M250.327,244.052c-1.216,0.647-2.108,1.216-2.108,1.216"/>
				
					<line style="fill:none;stroke:#EF8A66;stroke-width:0.5;stroke-linecap:round;stroke-linejoin:round;stroke-miterlimit:10;" x1="254.98" y1="237.905" x2="246.957" y2="242.569"/>
				
					<line style="fill:none;stroke:#EF8A66;stroke-width:0.5;stroke-linecap:round;stroke-linejoin:round;stroke-miterlimit:10;" x1="253.738" y1="235.891" x2="246.092" y2="239.628"/>
			</g>
			<g>
				<path style="fill:#FFA0A4;stroke:#EF8A66;stroke-width:0.5;stroke-miterlimit:10;" d="M272.259,232.514
					c-0.813-1.473-4.126,0.704-3.398,2.32C269.591,236.451,273.323,234.442,272.259,232.514z"/>
				<path style="fill:#FFA0A4;stroke:#EF8A66;stroke-width:0.5;stroke-miterlimit:10;" d="M273.258,230.625
					c-0.248-1.664-4.113-0.781-3.994,0.988C269.383,233.383,273.582,232.803,273.258,230.625z"/>
				<path style="fill:#FFA0A4;stroke:#EF8A66;stroke-width:0.5;stroke-miterlimit:10;" d="M274.885,227.763
					c-0.238-1.868-4.429-0.806-4.332,1.183C270.649,230.934,275.196,230.208,274.885,227.763z"/>
				<path style="fill:#FFA0A4;stroke:#EF8A66;stroke-width:0.5;stroke-miterlimit:10;" d="M276.204,225.643
					c-0.488,1.398-5.129,1.059-4.405-1.561C272.369,222.02,277.056,223.205,276.204,225.643z"/>
			</g>
			<g>
				<path style="fill:#FFA0A4;" d="M229.018,195.97c0,0,1.714,6.019,9.592,8.391c7.872,2.379,11.194-1.336,11.287-4.759
					c0.007-0.241,0.015-0.482,0.015-0.73c0.059-3.809-0.174-8.072,0.096-15.605c0.044-1.18-0.119-2.495-0.451-3.836
					c-1.87-7.754-14.123-18.084-15.679-4.69C233.047,181.882,229.018,195.97,229.018,195.97z"/>
				<path style="fill:#F48C93;" d="M249.912,198.871c0.059-3.809-0.174-8.072,0.096-15.605c0.044-1.18-0.119-2.495-0.451-3.836
					c-4.23,0.452-9.562,2.461-9.784,6.473C239.441,191.894,240.988,198.622,249.912,198.871z"/>
				<g>
					<path style="fill:#FFA0A4;" d="M248.138,192.489c-6.014-0.573-14.586-6.613-15.921-18.16c-0.718-6.215-0.31-6.038,1.675-8.279
						c1.985-2.241,2.96-8.398,4.194-10.3c2.468-3.804,9.519-14.34,16.467-5.588c6.87,8.653,8.169,3.259,6.925,21.139
						c-0.115,1.654-1.249,5.285-3.046,9.871C255.852,187.757,253.582,193.008,248.138,192.489z"/>
				</g>
			</g>
			<path style="fill:#FFA0A4;" d="M235.324,169.397c0.809-5.418-5.73-10.894-9.698-4.408c-3.436,5.615,2.841,8.731,6.592,9.341
				L235.324,169.397z"/>
			<path style="fill:#372834;" d="M258.327,171.555c-0.352,0.856-0.259,1.706,0.208,1.897c0.466,0.192,1.129-0.347,1.481-1.203
				c0.352-0.856,0.259-1.706-0.207-1.897C259.342,170.16,258.679,170.699,258.327,171.555z"/>
			<path style="fill:#F48C93;" d="M244.198,174.911c-1.441,2.224-4.412,2.858-6.635,1.417c-2.224-1.441-2.858-4.412-1.417-6.635
				c1.441-2.224,4.412-2.858,6.635-1.417C245.004,169.717,245.639,172.688,244.198,174.911z"/>
			<path style="fill:none;stroke:#B55B66;stroke-width:0.5;stroke-linecap:round;stroke-linejoin:round;stroke-miterlimit:10;" d="
				M255.676,171.857c0,0,0.559,5.695-0.067,6.79c-0.626,1.094-2.962-1.087-2.962-1.087"/>
			<path style="fill:#372834;" d="M259.054,165.273c0,0-0.355-0.346,0.462-0.395c0.817-0.049,2.861,0.229,3.979,1.558
				c0,0,0.379,0.483-0.459,0.372C262.574,166.746,260.109,166.186,259.054,165.273z"/>
			<path style="fill:#372834;" d="M252.484,162.803c0,0,0.483-0.094-0.183-0.563s-2.543-1.318-4.191-0.83
				c0,0-0.576,0.192,0.192,0.542C248.726,162.145,251.109,162.987,252.484,162.803z"/>
			<path style="fill:none;stroke:#B55B66;stroke-width:0.5;stroke-linecap:round;stroke-linejoin:round;stroke-miterlimit:10;" d="
				M233.012,169.539c0,0-0.448-5.912-5.811-3.176"/>
			<path style="fill:none;stroke:#B55B66;stroke-width:0.5;stroke-linecap:round;stroke-linejoin:round;stroke-miterlimit:10;" d="
				M228.84,169.652c0,0-0.523-3.023,1.782-3.917"/>
			<path style="fill:#372834;" d="M248.852,168.715c-0.352,0.856-0.259,1.706,0.207,1.897c0.466,0.192,1.13-0.347,1.481-1.204
				c0.352-0.856,0.259-1.706-0.207-1.897C249.867,167.32,249.204,167.859,248.852,168.715z"/>
			<path style="fill:#7C3301;" d="M263.983,153.751c0,0-6.154,8.486-14.61,8.005c-5.498-0.313-9.61,5.086-11.736,8.708
				c-0.602,1.027-2.14,0.82-2.458-0.328c-1.833-6.622-4.592-16.369,9.944-23.78C249.454,144.149,257.755,149.452,263.983,153.751z"
				/>
			<path style="fill:none;stroke:#A04507;stroke-width:0.5;stroke-linecap:round;stroke-linejoin:round;stroke-miterlimit:10;" d="
				M250.458,151.682c-1.541,0.263-3.337,0.322-5.368,0.344c-5.378,0.06-7.201,1.775-8.603,3.32"/>
			<path style="fill:none;stroke:#A04507;stroke-width:0.5;stroke-linecap:round;stroke-linejoin:round;stroke-miterlimit:10;" d="
				M256.855,149.501c0,0-1.274,0.823-3.628,1.533"/>
			<path style="fill:none;stroke:#A04507;stroke-width:0.5;stroke-linecap:round;stroke-linejoin:round;stroke-miterlimit:10;" d="
				M246.611,147.823c0,0-2.948,0.872-7.111,0.934c-3.732,0.055-5.859,1.798-7.505,5.289"/>
			<path style="fill:none;stroke:#B55B66;stroke-width:0.5;stroke-linecap:round;stroke-linejoin:round;stroke-miterlimit:10;" d="
				M247.386,178.486c0,0-0.706,2.796,3.243,3.792"/>
			<path style="fill:#F48C93;" d="M258.389,176.903c-0.963,1.486-0.962,3.361-0.195,4.872c0.079-0.201,0.158-0.399,0.238-0.603
				c0.923-2.354,1.667-4.45,2.191-6.162C259.765,175.258,259.056,175.874,258.389,176.903z"/>
			<g id="leg_00000005969108704847251830000005427081706008732052_">
				<path style="fill:#FFA0A4;" d="M263.982,332.067c5.062,19.759,17.723,58.976,17.571,59.73c-0.067,0.337-0.487,4.522-0.947,9.166
					c-0.279,2.822-0.572,5.814-0.806,8.207c-0.271,2.773,1.396,5.362,4.03,6.269c10.186,3.508,34.372,11.674,36.996,11.056
					c3.334-0.784,2.843-5.514-2.128-9.487c-1.048-0.84-2.564-2.203-4.305-3.823c-6.489-6.055-16.085-15.774-16.085-15.774
					s-6.517-75.13-7.762-82.088c-1.253-6.958-7.067-14.477-16.116-13.99C265.049,301.833,258.92,312.308,263.982,332.067z"/>
				<path style="fill:#6C27A8;" d="M279.759,409.6c-0.246,2.518,1.263,4.87,3.655,5.695c9.925,3.422,34.752,11.826,37.413,11.2
					c3.334-0.784,2.843-5.514-2.128-9.487c-1.048-0.84-2.564-2.203-4.305-3.823c0.046,6.642-14.57-1.365-18.415-4.431
					c-6.011-4.804-11.533-6.889-15.372-7.791C280.31,403.958,279.998,407.142,279.759,409.6z"/>
			</g>
			<path style="fill:#6C27A8;" d="M196.627,286.949c0,0-7.885,14.87,2.537,31.062c10.422,16.191,61.607,4.957,61.607,4.957
				l18.721,63.822l17.751-1.532c0,0-2.501-79.344-12.651-91.945c-6.696-8.314-42.737-3.734-63.133-5.621
				C205.984,286.26,196.627,286.949,196.627,286.949z"/>
			<path style="opacity:0.45;fill:#362160;" d="M262.54,319.497c0.29-0.586-0.202-1.253-0.846-1.138
				c-6.775,1.202-37.586,6.548-53.141,0.986c-13.922-4.978-14.321-24.572-14.321-24.572c-1.161,7.844,0.628,16.552,4.932,23.239
				c10.422,16.191,61.607,4.957,61.607,4.957S261.643,321.314,262.54,319.497z"/>
			<g>
				<defs>
					<path id="SVGID_00000093856565634395359080000005762882439062177423_" d="M220.943,221.288
						c-0.476,2.923-1.194,5.832-2.177,8.586c-2.498,6.98-4.416,13.845-6.071,20.339c-0.332,1.287-0.418-1.818-0.73-0.561
						c-0.187,0.756-0.857,1.288-1.635,1.292c-3.194,0.018-6.784-0.089-10.425-0.425c-6.03-0.556-10.084-1.297-14.783-3.684
						c0.003-0.007,0.041-0.363,1.041-3.187c2.017-5.734,6.735-15.3,10.914-25.467c0.961-2.338,1.92-5.539,2.767-7.691
						c4.091-10.422,8.139-13.6,18.878-14.337C218.727,196.151,223.172,207.538,220.943,221.288z"/>
				</defs>
				<clipPath id="SVGID_00000135654680202660570940000017635611634442589869_">
					<use xlink:href="#SVGID_00000093856565634395359080000005762882439062177423_"  style="overflow:visible;"/>
				</clipPath>
				
					<path style="clip-path:url(#SVGID_00000135654680202660570940000017635611634442589869_);fill:none;stroke:#FFFFFF;stroke-width:0.5;stroke-miterlimit:10;" d="
					M179.38,214.415c0,0,13.688-5.947,22.385,3.293c8.697,9.24,16.194-5.6,25.491,1.823c9.297,7.423,11.859-5.764,23.394-2.841
					c11.534,2.922,14.747-3.165,14.747-3.165"/>
				
					<path style="clip-path:url(#SVGID_00000135654680202660570940000017635611634442589869_);fill:none;stroke:#FFFFFF;stroke-width:0.5;stroke-miterlimit:10;" d="
					M163.735,231.826c0,0,13.688-5.947,22.385,3.293c8.697,9.24,16.194-5.6,25.491,1.823c9.297,7.423,11.86-5.763,23.394-2.841
					c11.534,2.922,14.748-3.165,14.748-3.165"/>
			</g>
			<path style="fill:none;stroke:#CC881B;stroke-width:0.5;stroke-linecap:round;stroke-linejoin:round;stroke-miterlimit:10;" d="
				M219.938,224.07c-3.166,8.834-5.389,17.49-7.35,25.434"/>
		</g>
		<g>
			<g>
				<path style="fill:#5757EA;" d="M414.915,252.013h-59.129c-5.233,0-9.475-4.242-9.475-9.475v-47.314
					c0-5.233,4.242-9.475,9.475-9.475h59.129c5.233,0,9.475,4.242,9.475,9.475v47.314
					C424.39,247.77,420.148,252.013,414.915,252.013z"/>
				<g>
					<path style="fill:#DB9837;" d="M368.111,204.367l-1.255,1.98c-0.265,0.47-0.317,1.032-0.142,1.542l12.441,35.495l3.677-1.699
						l-1.445-7.001L368.111,204.367z"/>
					<path style="fill:#FFC96C;" d="M404.827,232.942l-22.993,8.137c-0.812,0.287-1.702-0.138-1.989-0.949l-12.031-33.997
						c-0.347-0.981,0.167-2.059,1.148-2.406l22.686-8.028c0.982-0.347,2.059,0.167,2.406,1.148l11.922,33.689
						C406.323,231.517,405.809,232.595,404.827,232.942z"/>
					<path style="fill:#FFFFFF;" d="M390.505,208.85l-12.022,4.255c-0.624,0.221-1.309-0.106-1.53-0.73l-1.005-2.841
						c-0.221-0.624,0.106-1.309,0.73-1.53l12.023-4.255c0.624-0.221,1.309,0.106,1.53,0.73l1.005,2.841
						C391.456,207.945,391.129,208.63,390.505,208.85z"/>
					<path style="fill:#E9D0FC;" d="M381.514,241.159c-1.42,0.507-2.358,1.33-2.358,2.226l0,0l25.222-9.085
						c0.458-0.162,0.798-0.55,0.899-1.025l-0.018-0.572L381.514,241.159z"/>
					<path style="opacity:0.7;fill:#EFB35B;" d="M405.975,230.536l-4.503-12.726c-2.346,4.844-8.419,13.25-23.275,17.663
						l1.654,4.673c0.284,0.802,1.164,1.222,1.966,0.938l23.01-8.143C405.808,232.595,406.323,231.517,405.975,230.536z"/>
					<path style="fill:none;stroke:#FFFFFF;stroke-width:0.5;stroke-linecap:round;stroke-miterlimit:10;" d="M402.653,231.754
						l-19.568,6.925c-0.869,0.308-1.824-0.148-2.132-1.017l-10.834-30.616c-0.308-0.87,0.148-1.824,1.017-2.132l19.568-6.925
						c0.87-0.308,1.824,0.148,2.132,1.017l10.834,30.616C403.978,230.492,403.522,231.447,402.653,231.754z"/>
				</g>
			</g>
			<g>
				<path style="fill:#B256DF;" d="M350.114,110.809h-40.088c-3.849,0-6.969,3.12-6.969,6.969v33.61l-7.357,12.386
					c-0.628,1.058,0.349,2.344,1.537,2.02l11.895-3.239c0.294,0.038,0.591,0.064,0.895,0.064h40.088c3.849,0,6.969-3.12,6.969-6.969
					v-37.872C357.084,113.929,353.963,110.809,350.114,110.809z"/>
				<g>
					
						<rect x="333.143" y="137.46" transform="matrix(0.6851 -0.7284 0.7284 0.6851 3.0987 287.194)" style="fill:#473DD7;" width="1.215" height="5.105"/>
					<path style="fill:#473DD7;" d="M344.729,150.339L344.729,150.339c-0.989,1.051-2.643,1.102-3.694,0.113l-6.817-6.412
						c-1.051-0.989-1.102-2.643-0.113-3.694l0,0c0.989-1.051,2.643-1.102,3.694-0.113l6.817,6.412
						C345.667,147.634,345.718,149.288,344.729,150.339z"/>
					<path style="fill:#473DD7;" d="M331.974,123.746c4.277,4.023,4.482,10.751,0.46,15.027c-4.023,4.277-10.751,4.482-15.027,0.46
						c-4.276-4.023-4.482-10.751-0.46-15.027C320.969,119.929,327.697,119.724,331.974,123.746z"/>
					<path style="opacity:0.8;fill:#FFFFFF;" d="M330.673,125.185c3.496,3.289,3.664,8.789,0.376,12.285
						c-3.289,3.496-8.789,3.664-12.285,0.376c-3.496-3.289-3.664-8.789-0.376-12.285S327.176,121.896,330.673,125.185z"/>
				</g>
			</g>
		</g>
		<g>
			<path style="fill:#FFFFFF;" d="M87.504,243.17c0,3.285-2.663,5.947-5.947,5.947c-3.285,0-5.947-2.663-5.947-5.947
				c0-3.285,2.663-5.947,5.947-5.947C84.842,237.223,87.504,239.885,87.504,243.17z"/>
			<path style="fill:#FFFFFF;" d="M321.791,203.649c0,2.639-2.139,4.778-4.778,4.778c-2.639,0-4.778-2.139-4.778-4.778
				c0-2.639,2.139-4.778,4.778-4.778C319.652,198.871,321.791,201.01,321.791,203.649z"/>
			<circle style="fill:#FFFFFF;" cx="379.157" cy="367.877" r="4.435"/>
			<path style="fill:#FFFFFF;" d="M279.948,81.797c0,2.072-1.68,3.752-3.752,3.752c-2.072,0-3.752-1.68-3.752-3.752
				c0-2.072,1.68-3.752,3.752-3.752C278.268,78.044,279.948,79.724,279.948,81.797z"/>
			<path style="fill:#FFFFFF;" d="M410.884,294.772c0,1.961-1.59,3.551-3.551,3.551c-1.961,0-3.551-1.59-3.551-3.551
				c0-1.961,1.59-3.551,3.551-3.551C409.294,291.221,410.884,292.811,410.884,294.772z"/>
			<circle style="fill:#FFFFFF;" cx="139.954" cy="350.096" r="3.046"/>
		</g>
	</g>
</g>
</svg>
